<svg width="56" height="56" viewBox="0 0 56 56" fill="none" xmlns="http://www.w3.org/2000/svg">
<path d="M34.347 20.5098L24.337 30.5432L20.487 26.6932C20.2778 26.4489 20.0204 26.2505 19.7309 26.1105C19.4414 25.9704 19.1261 25.8917 18.8048 25.8793C18.4834 25.8669 18.163 25.921 17.8636 26.0383C17.5642 26.1557 17.2922 26.3336 17.0648 26.561C16.8374 26.7884 16.6595 27.0603 16.5422 27.3598C16.4249 27.6592 16.3707 27.9796 16.3831 28.301C16.3956 28.6223 16.4743 28.9376 16.6143 29.2271C16.7544 29.5166 16.9527 29.774 17.197 29.9832L22.6803 35.4898C22.8984 35.7061 23.1569 35.8772 23.4412 35.9933C23.7255 36.1094 24.0299 36.1683 24.337 36.1665C24.9491 36.1639 25.5357 35.9209 25.9703 35.4898L37.637 23.8232C37.8557 23.6063 38.0293 23.3482 38.1478 23.0638C38.2662 22.7795 38.3272 22.4745 38.3272 22.1665C38.3272 21.8585 38.2662 21.5535 38.1478 21.2692C38.0293 20.9848 37.8557 20.7267 37.637 20.5098C37.1998 20.0753 36.6084 19.8313 35.992 19.8313C35.3756 19.8313 34.7842 20.0753 34.347 20.5098ZM28.0003 4.6665C23.3854 4.6665 18.8742 6.03498 15.037 8.59888C11.1999 11.1628 8.20919 14.8069 6.44315 19.0706C4.6771 23.3342 4.21502 28.0257 5.11535 32.5519C6.01567 37.0782 8.23795 41.2358 11.5012 44.499C14.7644 47.7622 18.922 49.9845 23.4482 50.8848C27.9745 51.7851 32.666 51.3231 36.9296 49.557C41.1932 47.791 44.8374 44.8003 47.4013 40.9631C49.9652 37.126 51.3337 32.6147 51.3337 27.9998C51.3337 24.9357 50.7301 21.9015 49.5575 19.0706C48.3849 16.2396 46.6662 13.6674 44.4995 11.5007C42.3328 9.33398 39.7605 7.61526 36.9296 6.44265C34.0987 5.27004 31.0645 4.6665 28.0003 4.6665ZM28.0003 46.6665C24.3084 46.6665 20.6994 45.5717 17.6297 43.5206C14.56 41.4695 12.1674 38.5541 10.7546 35.1433C9.34175 31.7324 8.97209 27.9791 9.69234 24.3582C10.4126 20.7372 12.1904 17.4111 14.801 14.8005C17.4116 12.1899 20.7377 10.4121 24.3587 9.69185C27.9796 8.97159 31.7329 9.34125 35.1438 10.7541C38.5546 12.1669 41.47 14.5595 43.5211 17.6292C45.5722 20.6989 46.667 24.3079 46.667 27.9998C46.667 32.9505 44.7003 37.6985 41.1997 41.1992C37.699 44.6998 32.951 46.6665 28.0003 46.6665Z" fill="#238662"/>
</svg>
