<svg preserveAspectRatio="none" width="100%" height="100%" overflow="visible" style="display: block;" viewBox="0 0 16 16" fill="none" xmlns="http://www.w3.org/2000/svg">
<g id="check-circle">
<path id="Vector" d="M9.81332 5.86016L6.95332 8.72683L5.85332 7.62683C5.79355 7.55704 5.72001 7.50036 5.6373 7.46035C5.55459 7.42033 5.4645 7.39784 5.37268 7.3943C5.28087 7.39075 5.18932 7.40622 5.10377 7.43974C5.01822 7.47325 4.94052 7.52409 4.87555 7.58906C4.81058 7.65403 4.75974 7.73173 4.72622 7.81728C4.69271 7.90283 4.67724 7.99439 4.68078 8.0862C4.68433 8.17801 4.70682 8.2681 4.74683 8.35081C4.78685 8.43352 4.84353 8.50707 4.91332 8.56683L6.47998 10.1402C6.54228 10.202 6.61615 10.2508 6.69738 10.284C6.7786 10.3172 6.86558 10.334 6.95332 10.3335C7.12821 10.3328 7.29581 10.2633 7.41998 10.1402L10.7533 6.80683C10.8158 6.74485 10.8654 6.67112 10.8992 6.58988C10.9331 6.50864 10.9505 6.4215 10.9505 6.3335C10.9505 6.24549 10.9331 6.15835 10.8992 6.07711C10.8654 5.99587 10.8158 5.92214 10.7533 5.86016C10.6284 5.736 10.4594 5.6663 10.2833 5.6663C10.1072 5.6663 9.93822 5.736 9.81332 5.86016ZM7.99998 1.3335C6.68144 1.3335 5.39251 1.72449 4.29618 2.45703C3.19985 3.18957 2.34537 4.23077 1.84079 5.44894C1.3362 6.66711 1.20418 8.00756 1.46141 9.30076C1.71865 10.594 2.35359 11.7819 3.28594 12.7142C4.21829 13.6466 5.40617 14.2815 6.69938 14.5387C7.99259 14.796 9.33303 14.6639 10.5512 14.1594C11.7694 13.6548 12.8106 12.8003 13.5431 11.704C14.2757 10.6076 14.6666 9.31871 14.6666 8.00016C14.6666 7.12468 14.4942 6.25778 14.1592 5.44894C13.8241 4.6401 13.3331 3.90517 12.714 3.28612C12.095 2.66706 11.36 2.176 10.5512 1.84097C9.74237 1.50593 8.87546 1.3335 7.99998 1.3335V1.3335ZM7.99998 13.3335C6.94515 13.3335 5.914 13.0207 5.03694 12.4347C4.15988 11.8486 3.47629 11.0157 3.07263 10.0411C2.66896 9.0666 2.56334 7.99425 2.76913 6.95968C2.97492 5.92512 3.48287 4.97481 4.22875 4.22893C4.97463 3.48305 5.92494 2.9751 6.9595 2.76931C7.99407 2.56352 9.06642 2.66914 10.041 3.07281C11.0155 3.47647 11.8485 4.16006 12.4345 5.03712C13.0205 5.91418 13.3333 6.94533 13.3333 8.00016C13.3333 9.41465 12.7714 10.7712 11.7712 11.7714C10.771 12.7716 9.41447 13.3335 7.99998 13.3335V13.3335Z" fill="#333333"/>
</g>
</svg>
