<svg preserveAspectRatio="none" width="100%" height="100%" overflow="visible" style="display: block;" viewBox="0 0 16 16" fill="none" xmlns="http://www.w3.org/2000/svg">
<g id="qrcode-scan" clip-path="url(#clip0_0_419)">
<path id="Vector" d="M5.33333 14H2.66667C2.48986 14 2.32029 13.9298 2.19526 13.8047C2.07024 13.6797 2 13.5101 2 13.3333V10.6667C2 10.4899 1.92976 10.3203 1.80474 10.1953C1.67971 10.0702 1.51014 10 1.33333 10C1.15652 10 0.986953 10.0702 0.861929 10.1953C0.736905 10.3203 0.666667 10.4899 0.666667 10.6667V13.3333C0.666667 13.8638 0.87738 14.3725 1.25245 14.7475C1.62753 15.1226 2.13623 15.3333 2.66667 15.3333H5.33333C5.51014 15.3333 5.67971 15.2631 5.80474 15.1381C5.92976 15.013 6 14.8435 6 14.6667C6 14.4899 5.92976 14.3203 5.80474 14.1953C5.67971 14.0702 5.51014 14 5.33333 14V14ZM14.6667 10C14.4899 10 14.3203 10.0702 14.1953 10.1953C14.0702 10.3203 14 10.4899 14 10.6667V13.3333C14 13.5101 13.9298 13.6797 13.8047 13.8047C13.6797 13.9298 13.5101 14 13.3333 14H10.6667C10.4899 14 10.3203 14.0702 10.1953 14.1953C10.0702 14.3203 10 14.4899 10 14.6667C10 14.8435 10.0702 15.013 10.1953 15.1381C10.3203 15.2631 10.4899 15.3333 10.6667 15.3333H13.3333C13.8638 15.3333 14.3725 15.1226 14.7475 14.7475C15.1226 14.3725 15.3333 13.8638 15.3333 13.3333V10.6667C15.3333 10.4899 15.2631 10.3203 15.1381 10.1953C15.013 10.0702 14.8435 10 14.6667 10ZM13.3333 0.666667H10.6667C10.4899 0.666667 10.3203 0.736905 10.1953 0.861929C10.0702 0.986953 10 1.15652 10 1.33333C10 1.51014 10.0702 1.67971 10.1953 1.80474C10.3203 1.92976 10.4899 2 10.6667 2H13.3333C13.5101 2 13.6797 2.07024 13.8047 2.19526C13.9298 2.32029 14 2.48986 14 2.66667V5.33333C14 5.51014 14.0702 5.67971 14.1953 5.80474C14.3203 5.92976 14.4899 6 14.6667 6C14.8435 6 15.013 5.92976 15.1381 5.80474C15.2631 5.67971 15.3333 5.51014 15.3333 5.33333V2.66667C15.3333 2.13623 15.1226 1.62753 14.7475 1.25245C14.3725 0.87738 13.8638 0.666667 13.3333 0.666667V0.666667ZM1.33333 6C1.51014 6 1.67971 5.92976 1.80474 5.80474C1.92976 5.67971 2 5.51014 2 5.33333V2.66667C2 2.48986 2.07024 2.32029 2.19526 2.19526C2.32029 2.07024 2.48986 2 2.66667 2H5.33333C5.51014 2 5.67971 1.92976 5.80474 1.80474C5.92976 1.67971 6 1.51014 6 1.33333C6 1.15652 5.92976 0.986953 5.80474 0.861929C5.67971 0.736905 5.51014 0.666667 5.33333 0.666667H2.66667C2.13623 0.666667 1.62753 0.87738 1.25245 1.25245C0.87738 1.62753 0.666667 2.13623 0.666667 2.66667V5.33333C0.666667 5.51014 0.736905 5.67971 0.861929 5.80474C0.986953 5.92976 1.15652 6 1.33333 6ZM6.66667 3.33333H4C3.82319 3.33333 3.65362 3.40357 3.5286 3.5286C3.40357 3.65362 3.33333 3.82319 3.33333 4V6.66667C3.33333 6.84348 3.40357 7.01305 3.5286 7.13807C3.65362 7.26309 3.82319 7.33333 4 7.33333H6.66667C6.84348 7.33333 7.01305 7.26309 7.13807 7.13807C7.26309 7.01305 7.33333 6.84348 7.33333 6.66667V4C7.33333 3.82319 7.26309 3.65362 7.13807 3.5286C7.01305 3.40357 6.84348 3.33333 6.66667 3.33333ZM6 6H4.66667V4.66667H6V6ZM9.33333 7.33333H12C12.1768 7.33333 12.3464 7.26309 12.4714 7.13807C12.5964 7.01305 12.6667 6.84348 12.6667 6.66667V4C12.6667 3.82319 12.5964 3.65362 12.4714 3.5286C12.3464 3.40357 12.1768 3.33333 12 3.33333H9.33333C9.15652 3.33333 8.98695 3.40357 8.86193 3.5286C8.7369 3.65362 8.66667 3.82319 8.66667 4V6.66667C8.66667 6.84348 8.7369 7.01305 8.86193 7.13807C8.98695 7.26309 9.15652 7.33333 9.33333 7.33333ZM10 4.66667H11.3333V6H10V4.66667ZM6.66667 8.66667H4C3.82319 8.66667 3.65362 8.7369 3.5286 8.86193C3.40357 8.98695 3.33333 9.15652 3.33333 9.33333V12C3.33333 12.1768 3.40357 12.3464 3.5286 12.4714C3.65362 12.5964 3.82319 12.6667 4 12.6667H6.66667C6.84348 12.6667 7.01305 12.5964 7.13807 12.4714C7.26309 12.3464 7.33333 12.1768 7.33333 12V9.33333C7.33333 9.15652 7.26309 8.98695 7.13807 8.86193C7.01305 8.7369 6.84348 8.66667 6.66667 8.66667ZM6 11.3333H4.66667V10H6V11.3333ZM9.33333 10.6667C9.51014 10.6667 9.67971 10.5964 9.80474 10.4714C9.92976 10.3464 10 10.1768 10 10C10.1768 10 10.3464 9.92976 10.4714 9.80474C10.5964 9.67971 10.6667 9.51014 10.6667 9.33333C10.6667 9.15652 10.5964 8.98695 10.4714 8.86193C10.3464 8.7369 10.1768 8.66667 10 8.66667H9.33333C9.15652 8.66667 8.98695 8.7369 8.86193 8.86193C8.7369 8.98695 8.66667 9.15652 8.66667 9.33333V10C8.66667 10.1768 8.7369 10.3464 8.86193 10.4714C8.98695 10.5964 9.15652 10.6667 9.33333 10.6667ZM12 8.66667C11.8232 8.66667 11.6536 8.7369 11.5286 8.86193C11.4036 8.98695 11.3333 9.15652 11.3333 9.33333V11.3333C11.1565 11.3333 10.987 11.4036 10.8619 11.5286C10.7369 11.6536 10.6667 11.8232 10.6667 12C10.6667 12.1768 10.7369 12.3464 10.8619 12.4714C10.987 12.5964 11.1565 12.6667 11.3333 12.6667H12C12.1768 12.6667 12.3464 12.5964 12.4714 12.4714C12.5964 12.3464 12.6667 12.1768 12.6667 12V9.33333C12.6667 9.15652 12.5964 8.98695 12.4714 8.86193C12.3464 8.7369 12.1768 8.66667 12 8.66667ZM9.33333 11.3333C9.20148 11.3333 9.07259 11.3724 8.96295 11.4457C8.85332 11.5189 8.76787 11.6231 8.71741 11.7449C8.66695 11.8667 8.65375 12.0007 8.67948 12.1301C8.7052 12.2594 8.76869 12.3782 8.86193 12.4714C8.95516 12.5646 9.07395 12.6281 9.20327 12.6539C9.33259 12.6796 9.46664 12.6664 9.58846 12.6159C9.71027 12.5655 9.81439 12.48 9.88765 12.3704C9.9609 12.2607 10 12.1319 10 12C10 11.8232 9.92976 11.6536 9.80474 11.5286C9.67971 11.4036 9.51014 11.3333 9.33333 11.3333Z" fill="#333333"/>
</g>
<defs>
<clipPath id="clip0_0_419">
<rect width="16" height="16" fill="white"/>
</clipPath>
</defs>
</svg>
