<svg width="22" height="19" viewBox="0 0 22 19" fill="none" xmlns="http://www.w3.org/2000/svg">
<path d="M6.70764 3.34424H3.4879V6.2862H6.57261C8.58472 6.2862 9.65733 7.23035 9.65733 8.96191C9.70548 9.76648 9.38606 10.5498 8.7877 11.0944C8.18934 11.6391 7.37572 11.8872 6.57261 11.7698H3.4879V6.29375H0V19.0001H3.4879V14.5796H6.70764C10.7318 14.5796 13.0121 12.4401 13.0121 8.82784C12.879 5.34961 10.5987 3.34424 6.70764 3.34424Z" fill="#333333"/>
<path d="M21.9995 0V6.9541H15.0239V0H21.9995ZM16.228 1.2041V5.75098H20.7925V1.2041H16.228Z" fill="#333333"/>
<rect x="17.3057" y="2.27393" width="2.28026" height="2.27351" fill="#333333"/>
</svg>
