<svg width="24" height="24" viewBox="0 0 24 24" fill="none" xmlns="http://www.w3.org/2000/svg">
<path fill-rule="evenodd" clip-rule="evenodd" d="M14.6817 5.12938C14.8284 4.98276 14.9819 4.84504 15.1414 4.71653L13.0358 2.61082C12.464 2.03894 11.5369 2.03894 10.965 2.61082L9.42228 1.06797C10.8462 -0.355991 13.1547 -0.355991 14.5786 1.06797L18.8442 5.33377C18.9573 5.44691 18.8772 5.64037 18.7172 5.64037C18.717 5.64037 18.7173 5.64037 18.7172 5.64037C18.6556 5.64038 18.5939 5.64195 18.5329 5.64507C17.926 5.67611 17.3473 5.86022 16.8419 6.17877C16.7935 6.20926 16.7458 6.24098 16.6987 6.27392C16.5309 6.39156 16.3721 6.52471 16.2241 6.67261L12.6244 10.2728C12.6244 10.2728 12.6245 10.2728 12.6244 10.2728C12.6042 10.2931 12.5829 10.3119 12.5608 10.329C12.4407 10.4223 12.2959 10.4688 12.1512 10.4687C12.0064 10.4686 11.8617 10.422 11.7419 10.3291C11.7198 10.312 11.6986 10.2934 11.6784 10.2732L8.06556 6.65952C7.86972 6.46379 7.6545 6.29354 7.4248 6.15125C7.38718 6.12794 7.34916 6.10537 7.31076 6.08355C6.87385 5.83529 6.38775 5.68379 5.87942 5.64024C5.77795 5.63155 5.67559 5.62716 5.57256 5.62716C5.57242 5.62716 5.57271 5.62716 5.57256 5.62716C5.31113 5.62681 5.17987 5.31061 5.36483 5.12563L9.42228 1.06797L10.965 2.61082L8.99314 4.58283C9.20886 4.74471 9.41439 4.9228 9.60806 5.11641L12.1513 7.66017L14.6817 5.12938ZM1.06792 9.42214C-0.355972 10.846 -0.355972 13.1547 1.06792 14.5787L3.70707 17.218C3.78907 17.3 3.91147 17.3152 4.02745 17.3152H5.57212C5.57194 17.3152 5.57231 17.3152 5.57212 17.3152C6.22145 17.3151 6.85741 17.0517 7.31626 16.5926L10.9291 12.9796C10.9294 12.9793 10.9297 12.979 10.93 12.9787C11.1098 12.7993 11.3264 12.6693 11.5595 12.5887C11.7494 12.523 11.9503 12.4901 12.1512 12.4901C12.3524 12.4901 12.5536 12.5231 12.7437 12.589C12.9766 12.6697 13.1929 12.7999 13.3724 12.9795C13.3723 12.9794 13.3726 12.9796 13.3724 12.9795L16.9723 16.5791C17.4311 17.0384 18.0672 17.3021 18.7167 17.3021H19.9729C20.0951 17.3021 20.2252 17.2856 20.3117 17.1992L22.9321 14.5787C24.356 13.1547 24.356 10.846 22.9321 9.42214L20.3115 6.80139C20.2251 6.71502 20.095 6.69862 19.9729 6.69862H18.7172C18.0677 6.69862 17.4315 6.96196 16.9727 7.42116C16.9726 7.42118 16.9727 7.42114 16.9727 7.42116L13.3728 11.0212C13.1917 11.2024 12.9798 11.335 12.7539 11.4187C12.5599 11.4907 12.3555 11.5267 12.1512 11.5267C11.9471 11.5267 11.7431 11.4908 11.5494 11.4192C11.3233 11.3355 11.1112 11.203 10.9298 11.0218L7.31676 7.40861C6.85788 6.94949 6.22193 6.68564 5.57256 6.68552C5.57242 6.68552 5.57271 6.68552 5.57256 6.68552H4.02745C3.91154 6.68552 3.78921 6.7007 3.70726 6.78266L1.06792 9.42214ZM8.82275 12.0004L5.77349 8.95096C5.72385 8.90129 5.643 8.86743 5.57212 8.86743H4.70813L2.61068 10.965C2.03901 11.5366 2.03875 12.4638 2.61068 13.0359C2.61066 13.0359 2.6107 13.0359 2.61068 13.0359L4.70801 15.1333H5.57212C5.643 15.1333 5.72347 15.0998 5.77311 15.0502L8.82275 12.0004ZM15.4791 12.0005L18.5161 15.0374C18.5654 15.0867 18.6457 15.1202 18.7167 15.1202H19.305L21.3893 13.0359C21.3892 13.036 21.3893 13.0359 21.3893 13.0359C21.9612 12.4639 21.961 11.5367 21.3894 10.965L19.305 8.88053H18.7167C18.6457 8.88053 18.5653 8.9141 18.5159 8.96348L15.4791 12.0005ZM18.8443 18.6663C18.9575 18.5531 18.8773 18.3596 18.7173 18.3596C18.7171 18.3596 18.7175 18.3596 18.7173 18.3596C18.6558 18.3596 18.5939 18.358 18.533 18.3549C17.9261 18.3239 17.3475 18.1398 16.842 17.8212C16.7937 17.7907 16.7459 17.759 16.699 17.7261C16.5312 17.6085 16.3724 17.4754 16.2246 17.3276C16.2245 17.3275 16.2246 17.3277 16.2246 17.3276L12.6249 13.7279C12.6249 13.7279 12.625 13.7279 12.6249 13.7279C12.61 13.713 12.594 13.6984 12.5779 13.6853C12.4572 13.5867 12.3042 13.5375 12.1512 13.5377C11.9985 13.5379 11.8458 13.5872 11.7253 13.6854C11.7092 13.6985 11.6936 13.7126 11.6787 13.7275L8.06578 17.3406C8.06557 17.3408 8.066 17.3404 8.06578 17.3406C8.06572 17.3406 8.06502 17.3413 8.06496 17.3414C7.8692 17.5369 7.65447 17.7066 7.42492 17.8488C7.38729 17.8721 7.34926 17.8946 7.31085 17.9164C6.87395 18.1646 6.38789 18.3161 5.8796 18.3596C5.77811 18.3683 5.67573 18.3727 5.57268 18.3727C5.57249 18.3727 5.57286 18.3727 5.57268 18.3727C5.31128 18.3731 5.17994 18.6893 5.36491 18.8743L9.42239 22.9321C10.8463 24.356 13.1548 24.356 14.5787 22.9321L18.8443 18.6663ZM15.1417 19.2835C14.982 19.1549 14.8285 19.0171 14.6818 18.8705L12.1516 16.3402L9.60855 18.8834C9.41492 19.0769 9.20893 19.2554 8.99327 19.4172L10.9651 21.3892C10.9651 21.3892 10.9651 21.3892 10.9651 21.3892C11.537 21.961 12.4642 21.961 13.036 21.3892L15.1417 19.2835Z" fill="#333333"/>
</svg>
