<svg width="123" height="40" viewBox="0 0 123 40" fill="none" xmlns="http://www.w3.org/2000/svg">
<path d="M25.2944 32.2476L31.0476 32.2476L31.0476 15.375L25.2944 15.375L25.2944 32.2476ZM33.0315 3.89367L29.1629 3.89367L29.1629 7.78734L33.0315 7.78734L33.0315 3.89367ZM11.3081 5.79058L5.75323 5.79058L5.75323 10.6826L10.9113 10.6826C14.1847 10.6826 16.0694 12.28 16.0694 15.2752C16.0694 18.2703 14.1847 19.9675 10.9113 19.9675L5.75323 19.9675L5.75323 10.7825L-5.99893e-07 10.7825L-1.79413e-06 32.2476L5.75323 32.2476L5.75323 24.8596L11.2089 24.8596C17.8548 24.8596 21.7234 21.2654 21.7234 15.0755C21.7234 9.2849 17.954 5.79058 11.3081 5.79058ZM36.9 2.05298e-06L25.2944 1.40728e-06L25.2944 11.681L36.9 11.681L36.9 2.05298e-06ZM35.0153 9.68425L27.2782 9.68425L27.2782 1.89692L35.0153 1.89692L35.0153 9.68425ZM68.7411 5.79059L63.4839 5.79059L63.4839 10.6826L68.4435 10.6826C71.7169 10.6826 73.6016 12.28 73.6016 15.2752C73.6016 18.2703 71.7169 19.9675 68.4435 19.9675L63.4839 19.9675L63.4839 10.7825L57.7307 10.7825L57.7307 32.2476L63.4839 32.2476L63.4839 24.8596L68.7411 24.8596C75.3871 24.8596 79.2556 21.2654 79.2556 15.0755C79.2556 9.28491 75.3871 5.79059 68.7411 5.79059ZM117.048 11.9805L112.089 24.5601L107.129 11.9805L101.177 11.9805L109.113 32.2476L106.038 39.9351L112.089 39.9351L123 11.9805L117.048 11.9805ZM91.2581 11.8807C87.7863 11.8807 85.1081 12.6794 82.1323 14.1769L83.9177 18.1705C86.0008 16.9724 88.0839 16.3734 89.9686 16.3734C92.746 16.3734 94.1347 17.5714 94.1347 19.7679L94.1347 20.1672L88.5798 20.1672C83.6202 20.1672 80.9419 22.4635 80.9419 26.2573C80.9419 29.9513 83.521 32.5471 87.8855 32.5471C90.6629 32.5471 92.6468 31.5487 94.2339 29.8515L94.2339 32.0479L99.8879 32.0479L99.8879 18.8693C99.6895 14.5763 96.6145 11.8807 91.2581 11.8807ZM94.6306 25.4586C94.0355 27.1558 92.3492 28.5536 89.9686 28.5536C87.9847 28.5536 86.7944 27.5552 86.7944 25.9578C86.7944 24.3604 87.8855 23.6615 90.0677 23.6615L94.6306 23.6615L94.6306 25.4586ZM45.7282 27.8547C42.9508 27.8547 40.9669 25.6583 40.9669 22.3636C40.9669 19.1688 42.9508 16.9724 45.7282 16.9724C47.7121 16.9724 49.2 17.7711 50.2911 19.1688L54.1597 16.3734C52.3742 13.6778 49.2992 12.0804 45.4307 12.0804C39.3798 11.9805 35.2137 16.1737 35.2137 22.3636C35.2137 28.5536 39.3798 32.6469 45.4307 32.6469C49.5968 32.6469 52.6718 30.9497 54.3581 28.1542L50.3903 25.4586C49.3984 27.056 47.8113 27.8547 45.7282 27.8547Z" fill="#38B160"/>
</svg>
