<svg width="48" height="16" viewBox="0 0 48 16" fill="none" xmlns="http://www.w3.org/2000/svg">
<path d="M9.87097 12.6066H12.1161V6.01056H9.87097V12.6066ZM12.8903 1.52215H11.3806V3.04431H12.8903V1.52215ZM4.4129 2.26372H2.24516V4.17617H4.25806C5.53548 4.17617 6.27097 4.80064 6.27097 5.97153C6.27097 7.14242 5.53548 7.80592 4.25806 7.80592H2.24516V4.2152H0V12.6066H2.24516V9.71837H4.37419C6.96774 9.71837 8.47742 8.31331 8.47742 5.89347C8.47742 3.62975 7.00645 2.26372 4.4129 2.26372ZM14.4 0H9.87097V4.56646H14.4V0ZM13.6645 3.78587H10.6452V0.741562H13.6645V3.78587ZM26.8258 2.26372H24.7742V4.17617H26.7097C27.9871 4.17617 28.7226 4.80064 28.7226 5.97153C28.7226 7.14242 27.9871 7.80592 26.7097 7.80592H24.7742V4.2152H22.529V12.6066H24.7742V9.71837H26.8258C29.4194 9.71837 30.929 8.31331 30.929 5.89347C30.929 3.62975 29.4194 2.26372 26.8258 2.26372ZM45.6774 4.68355L43.7419 9.60128L41.8064 4.68355H39.4839L42.5806 12.6066L41.3806 15.6118H43.7419L48 4.68355H45.6774ZM35.6129 4.64452C34.2581 4.64452 33.2129 4.95676 32.0516 5.5422L32.7484 7.10339C33.5613 6.63503 34.3742 6.40085 35.1097 6.40085C36.1935 6.40085 36.7355 6.86921 36.7355 7.72786V7.88398H34.5677C32.6323 7.88398 31.5871 8.78166 31.5871 10.2648C31.5871 11.7089 32.5935 12.7237 34.2968 12.7237C35.3806 12.7237 36.1548 12.3334 36.7742 11.6699V12.5285H38.9806V7.3766C38.9032 5.69832 37.7032 4.64452 35.6129 4.64452ZM36.929 9.95255C36.6968 10.6161 36.0387 11.1625 35.1097 11.1625C34.3355 11.1625 33.871 10.7722 33.871 10.1477C33.871 9.52322 34.2968 9.25002 35.1484 9.25002H36.929V9.95255ZM17.8452 10.8893C16.7613 10.8893 15.9871 10.0306 15.9871 8.74263C15.9871 7.49368 16.7613 6.63503 17.8452 6.63503C18.6194 6.63503 19.2 6.94727 19.6258 7.49368L21.1355 6.40085C20.4387 5.34706 19.2387 4.72258 17.729 4.72258C15.3677 4.68355 13.7419 6.32279 13.7419 8.74263C13.7419 11.1625 15.3677 12.7627 17.729 12.7627C19.3548 12.7627 20.5548 12.0992 21.2129 11.0063L19.6645 9.95255C19.2774 10.577 18.6581 10.8893 17.8452 10.8893Z" fill="white" fill-opacity="0.8"/>
</svg>
